<svg width="42" height="42" viewBox="0 0 42 42" fill="none" xmlns="http://www.w3.org/2000/svg">
<path d="M3.5 21C3.5 30.6652 11.3348 38.5 21 38.5C30.6652 38.5 38.5 30.6652 38.5 21C38.5 11.3348 30.6652 3.5 21 3.5C11.3348 3.5 3.5 11.3348 3.5 21Z" stroke="white" stroke-width="1.5" stroke-linecap="round" stroke-linejoin="round"/>
<path d="M4.60248 14.875H37.3975M22.75 3.5875C22.75 3.5875 28 10.5 28 21C28 31.5 22.75 38.4125 22.75 38.4125V3.5875ZM19.25 38.4125C19.25 38.4125 14 31.5 14 21C14 10.5 19.25 3.5875 19.25 3.5875V38.4125ZM4.60248 27.125H37.3975H4.60248Z" stroke="white" stroke-width="1.5" stroke-linecap="round" stroke-linejoin="round"/>
</svg>
