<svg width="22" height="22" viewBox="0 0 22 22" fill="none" xmlns="http://www.w3.org/2000/svg">
<path d="M2.731 9.55411C2.60771 9.43077 2.53844 9.26351 2.53844 9.08912C2.53844 8.91472 2.60771 8.74746 2.731 8.62413L8.84228 2.51154L8.93436 2.43393C9.06108 2.3469 9.21428 2.30702 9.36734 2.32119C9.52041 2.33537 9.66368 2.40272 9.77226 2.51154L9.84855 2.60361C9.93584 2.73039 9.976 2.88372 9.96207 3.03701C9.94813 3.1903 9.88098 3.33387 9.77226 3.44283L4.78432 8.43077H19.3654C19.5398 8.43077 19.7071 8.50006 19.8304 8.6234C19.9538 8.74674 20.0231 8.91403 20.0231 9.08846C20.0231 9.26289 19.9538 9.43018 19.8304 9.55352C19.7071 9.67686 19.5398 9.74615 19.3654 9.74615H3.19534C3.02124 9.74612 2.85426 9.67705 2.731 9.55411V9.55411ZM1.60767 13.0346C1.60767 12.8602 1.67696 12.6929 1.8003 12.5696C1.92364 12.4462 2.09093 12.3769 2.26536 12.3769H18.4354C18.5654 12.3769 18.6924 12.4155 18.8005 12.4877C18.9086 12.5599 18.9929 12.6625 19.0427 12.7825C19.0925 12.9026 19.1057 13.0347 19.0804 13.1622C19.0552 13.2897 18.9928 13.4069 18.901 13.4989L12.7884 19.6115L12.6964 19.6891C12.561 19.7805 12.3966 19.8183 12.2349 19.7953C12.0733 19.7723 11.9259 19.6901 11.8214 19.5646C11.7169 19.4391 11.6627 19.2793 11.6693 19.1162C11.6759 18.9531 11.7429 18.7982 11.8571 18.6816L16.8503 13.6923H2.26536C2.09093 13.6923 1.92364 13.623 1.8003 13.4997C1.67696 13.3763 1.60767 13.209 1.60767 13.0346V13.0346Z" fill="#757575"/>
</svg>
