<svg width="42" height="42" viewBox="0 0 42 42" fill="none" xmlns="http://www.w3.org/2000/svg">
<path d="M18.375 30.1875C18.375 30.5356 18.2367 30.8694 17.9906 31.1156C17.7444 31.3617 17.4106 31.5 17.0625 31.5H13.125V35.4375C13.125 35.7856 12.9867 36.1194 12.7406 36.3656C12.4944 36.6117 12.1606 36.75 11.8125 36.75C11.4644 36.75 11.1306 36.6117 10.8844 36.3656C10.6383 36.1194 10.5 35.7856 10.5 35.4375V31.5H6.5625C6.2144 31.5 5.88056 31.3617 5.63442 31.1156C5.38828 30.8694 5.25 30.5356 5.25 30.1875C5.25 29.8394 5.38828 29.5056 5.63442 29.2594C5.88056 29.0133 6.2144 28.875 6.5625 28.875H10.5V24.9375C10.5 24.5894 10.6383 24.2556 10.8844 24.0094C11.1306 23.7633 11.4644 23.625 11.8125 23.625C12.1606 23.625 12.4944 23.7633 12.7406 24.0094C12.9867 24.2556 13.125 24.5894 13.125 24.9375V28.875H17.0625C17.4106 28.875 17.7444 29.0133 17.9906 29.2594C18.2367 29.5056 18.375 29.8394 18.375 30.1875ZM17.0625 10.5H6.5625C6.2144 10.5 5.88056 10.6383 5.63442 10.8844C5.38828 11.1306 5.25 11.4644 5.25 11.8125C5.25 12.1606 5.38828 12.4944 5.63442 12.7406C5.88056 12.9867 6.2144 13.125 6.5625 13.125H17.0625C17.4106 13.125 17.7444 12.9867 17.9906 12.7406C18.2367 12.4944 18.375 12.1606 18.375 11.8125C18.375 11.4644 18.2367 11.1306 17.9906 10.8844C17.7444 10.6383 17.4106 10.5 17.0625 10.5ZM24.9375 28.8914H35.4375C35.7856 28.8914 36.1194 28.7531 36.3656 28.507C36.6117 28.2608 36.75 27.927 36.75 27.5789C36.75 27.2308 36.6117 26.897 36.3656 26.6508C36.1194 26.4047 35.7856 26.2664 35.4375 26.2664H24.9375C24.5894 26.2664 24.2556 26.4047 24.0094 26.6508C23.7633 26.897 23.625 27.2308 23.625 27.5789C23.625 27.927 23.7633 28.2608 24.0094 28.507C24.2556 28.7531 24.5894 28.8914 24.9375 28.8914ZM35.4375 31.4836H24.9375C24.5894 31.4836 24.2556 31.6219 24.0094 31.868C23.7633 32.1142 23.625 32.448 23.625 32.7961C23.625 33.1442 23.7633 33.478 24.0094 33.7242C24.2556 33.9703 24.5894 34.1086 24.9375 34.1086H35.4375C35.7856 34.1086 36.1194 33.9703 36.3656 33.7242C36.6117 33.478 36.75 33.1442 36.75 32.7961C36.75 32.448 36.6117 32.1142 36.3656 31.868C36.1194 31.6219 35.7856 31.4836 35.4375 31.4836ZM25.3148 16.6852C25.5657 16.9277 25.901 17.0633 26.25 17.0633C26.599 17.0633 26.9343 16.9277 27.1852 16.6852L30.1875 13.6664L33.1898 16.6852C33.4407 16.9277 33.776 17.0633 34.125 17.0633C34.474 17.0633 34.8093 16.9277 35.0602 16.6852C35.3066 16.4363 35.4449 16.1002 35.4449 15.75C35.4449 15.3998 35.3066 15.0637 35.0602 14.8148L32.0414 11.8125L35.0602 8.81016C35.2695 8.55514 35.3764 8.2314 35.3602 7.90189C35.344 7.57238 35.2059 7.26068 34.9726 7.0274C34.7393 6.79412 34.4276 6.65596 34.0981 6.63977C33.7686 6.62359 33.4449 6.73055 33.1898 6.93984L30.1875 9.95859L27.1852 6.93984C26.9301 6.73055 26.6064 6.62359 26.2769 6.63977C25.9474 6.65596 25.6357 6.79412 25.4024 7.0274C25.1691 7.26068 25.031 7.57238 25.0148 7.90189C24.9986 8.2314 25.1055 8.55514 25.3148 8.81016L28.3336 11.8125L25.3148 14.8148C25.0684 15.0637 24.9301 15.3998 24.9301 15.75C24.9301 16.1002 25.0684 16.4363 25.3148 16.6852Z" fill="white"/>
</svg>
