<svg width="22" height="22" viewBox="0 0 22 22" fill="none" xmlns="http://www.w3.org/2000/svg">
<g clip-path="url(#clip0_88_3)">
<path d="M13.2 10.1846V14.5692M4.43079 5.80001H18.4616L17.076 18.2699C17.0285 18.699 16.8244 19.0955 16.5027 19.3836C16.1811 19.6716 15.7645 19.8308 15.3327 19.8308H7.55965C7.12788 19.8308 6.71128 19.6716 6.38961 19.3836C6.06794 19.0955 5.86382 18.699 5.81633 18.2699L4.43079 5.80001ZM7.36409 3.29814C7.50594 2.99733 7.73039 2.74305 8.01127 2.56496C8.29215 2.38687 8.61787 2.29231 8.95045 2.29231H13.9419C14.2746 2.29214 14.6005 2.38662 14.8816 2.56472C15.1626 2.74282 15.3872 2.9972 15.5291 3.29814L16.7077 5.80001H6.18463L7.36409 3.29814V3.29814ZM2.67694 5.80001H20.2154H2.67694ZM9.69233 10.1846V14.5692V10.1846Z" stroke="white" stroke-width="2" stroke-linecap="round" stroke-linejoin="round"/>
</g>
<defs>
<clipPath id="clip0_88_3">
<rect width="21.0462" height="21.0462" fill="white" transform="translate(0.923096 0.538467)"/>
</clipPath>
</defs>
</svg>
