<svg width="42" height="42" viewBox="0 0 42 42" fill="none" xmlns="http://www.w3.org/2000/svg">
<path d="M11.2 26.6933V12.3667H28.4666L30.31 10.5H9.33331V26.6933H11.2Z" fill="white"/>
<path d="M7.00002 8.16667H35V26.8333H37.3334V7.58334C37.3334 7.11921 37.149 6.67409 36.8208 6.3459C36.4926 6.01771 36.0475 5.83334 35.5834 5.83334H6.41669C5.95256 5.83334 5.50744 6.01771 5.17925 6.3459C4.85106 6.67409 4.66669 7.11921 4.66669 7.58334V26.8333H7.00002V8.16667Z" fill="white"/>
<path d="M1.16669 29.1667V33.1333C1.16669 33.9378 1.48627 34.7094 2.05513 35.2782C2.62399 35.8471 3.39553 36.1667 4.20002 36.1667H37.73C38.5345 36.1667 39.306 35.8471 39.8749 35.2782C40.4438 34.7094 40.7634 33.9378 40.7634 33.1333V29.1667H1.16669ZM38.5 33.1333C38.5 33.319 38.4263 33.497 38.295 33.6283C38.1637 33.7596 37.9857 33.8333 37.8 33.8333H4.15335C3.9677 33.8333 3.78965 33.7596 3.65838 33.6283C3.5271 33.497 3.45335 33.319 3.45335 33.1333V30.9517H15.0617C15.2075 31.2958 15.451 31.5897 15.762 31.797C16.073 32.0044 16.4379 32.1161 16.8117 32.1183H25.13C25.5038 32.1161 25.8687 32.0044 26.1797 31.797C26.4907 31.5897 26.7342 31.2958 26.88 30.9517H38.5V33.1333Z" fill="white"/>
</svg>
