<svg width="22" height="22" viewBox="0 0 22 22" fill="none" xmlns="http://www.w3.org/2000/svg">
<path d="M16.0316 1.07292C17.2391 -0.135229 19.1984 -0.135229 20.4059 1.07292L20.9258 1.5937C22.1332 2.80199 22.1332 4.76093 20.9258 5.96835L12.4523 14.4461C12.0785 14.8156 11.6188 15.0863 11.1117 15.2324L6.81484 16.4613C6.45391 16.5644 6.06719 16.4613 5.80078 16.1605C5.53867 15.9328 5.43555 15.5461 5.53867 15.1851L6.76758 10.8883C6.91367 10.3812 7.18438 9.92148 7.55391 9.54765L16.0316 1.07292ZM18.9105 2.53128C18.5453 2.12867 17.8922 2.12867 17.4883 2.53128L16.2379 3.78124L18.2188 5.7621L19.4691 4.47304C19.873 4.10781 19.873 3.45468 19.4691 3.05206L18.9105 2.53128V2.53128ZM8.75273 11.4555L8.03086 13.9691L10.5445 13.2473C10.7164 13.2 10.8668 13.1098 10.9914 12.9851L16.7621 7.21874L14.7812 5.23788L9.01484 11.0086C8.89023 11.1332 8.8 11.2836 8.75273 11.4555V11.4555ZM8.59375 2.74999C9.16523 2.74999 9.625 3.21191 9.625 3.78124C9.625 4.35273 9.16523 4.81249 8.59375 4.81249H3.78125C2.83207 4.81249 2.0625 5.58163 2.0625 6.53124V18.2187C2.0625 19.1684 2.83207 19.9375 3.78125 19.9375H15.4688C16.4184 19.9375 17.1875 19.1684 17.1875 18.2187V13.4062C17.1875 12.8348 17.6473 12.375 18.2188 12.375C18.7902 12.375 19.25 12.8348 19.25 13.4062V18.2187C19.25 20.307 17.557 22 15.4688 22H3.78125C1.69297 22 0 20.307 0 18.2187V6.53124C0 4.44296 1.69297 2.74999 3.78125 2.74999H8.59375Z" fill="#757575"/>
</svg>
