<svg width="135" height="165" viewBox="0 0 135 165" fill="none" xmlns="http://www.w3.org/2000/svg">
<path d="M44.75 0V111.875H67.125V0H44.75ZM67.125 14.9167L96.9583 111.875L119.333 104.417L89.5 7.45833L67.125 14.9167ZM14.9167 14.9167V111.875H37.2917V14.9167H14.9167ZM0 119.333V134.25H134.25V119.333H0Z" fill="#829C4E"/>
<path d="M16.76 146C18.04 146 18.9933 146.3 19.62 146.9C20.2467 147.5 20.56 148.387 20.56 149.56C20.56 150.187 20.4067 150.74 20.1 151.22C19.7933 151.687 19.34 152.053 18.74 152.32C18.14 152.573 17.4 152.7 16.52 152.7L16.6 151.8C17.0133 151.8 17.4867 151.86 18.02 151.98C18.5533 152.087 19.0667 152.287 19.56 152.58C20.0667 152.86 20.48 153.26 20.8 153.78C21.1333 154.287 21.3 154.94 21.3 155.74C21.3 156.62 21.1533 157.34 20.86 157.9C20.58 158.46 20.2067 158.893 19.74 159.2C19.2733 159.507 18.7733 159.72 18.24 159.84C17.7067 159.947 17.1933 160 16.7 160H11.72C11.3733 160 11.08 159.887 10.84 159.66C10.6133 159.42 10.5 159.127 10.5 158.78V147.22C10.5 146.873 10.6133 146.587 10.84 146.36C11.08 146.12 11.3733 146 11.72 146H16.76ZM16.4 148.36H12.84L13.1 148.04V151.66L12.86 151.48H16.46C16.8467 151.48 17.1933 151.353 17.5 151.1C17.8067 150.847 17.96 150.48 17.96 150C17.96 149.427 17.8133 149.013 17.52 148.76C17.24 148.493 16.8667 148.36 16.4 148.36ZM16.56 153.84H12.92L13.1 153.68V157.9L12.9 157.7H16.7C17.3133 157.7 17.8 157.54 18.16 157.22C18.52 156.887 18.7 156.393 18.7 155.74C18.7 155.14 18.58 154.707 18.34 154.44C18.1 154.173 17.8133 154.007 17.48 153.94C17.1467 153.873 16.84 153.84 16.56 153.84ZM36.4855 153C36.4855 154 36.3188 154.933 35.9855 155.8C35.6521 156.667 35.1788 157.433 34.5655 158.1C33.9655 158.753 33.2455 159.267 32.4055 159.64C31.5788 160.013 30.6721 160.2 29.6855 160.2C28.6988 160.2 27.7921 160.013 26.9655 159.64C26.1388 159.267 25.4188 158.753 24.8055 158.1C24.2055 157.433 23.7388 156.667 23.4055 155.8C23.0721 154.933 22.9055 154 22.9055 153C22.9055 152 23.0721 151.067 23.4055 150.2C23.7388 149.333 24.2055 148.573 24.8055 147.92C25.4188 147.253 26.1388 146.733 26.9655 146.36C27.7921 145.987 28.6988 145.8 29.6855 145.8C30.6721 145.8 31.5788 145.987 32.4055 146.36C33.2455 146.733 33.9655 147.253 34.5655 147.92C35.1788 148.573 35.6521 149.333 35.9855 150.2C36.3188 151.067 36.4855 152 36.4855 153ZM33.8855 153C33.8855 152.107 33.7055 151.3 33.3455 150.58C32.9855 149.847 32.4921 149.267 31.8655 148.84C31.2388 148.413 30.5121 148.2 29.6855 148.2C28.8588 148.2 28.1321 148.413 27.5055 148.84C26.8788 149.267 26.3855 149.84 26.0255 150.56C25.6788 151.28 25.5055 152.093 25.5055 153C25.5055 153.893 25.6788 154.707 26.0255 155.44C26.3855 156.16 26.8788 156.733 27.5055 157.16C28.1321 157.587 28.8588 157.8 29.6855 157.8C30.5121 157.8 31.2388 157.587 31.8655 157.16C32.4921 156.733 32.9855 156.16 33.3455 155.44C33.7055 154.707 33.8855 153.893 33.8855 153ZM51.6613 153C51.6613 154 51.4946 154.933 51.1613 155.8C50.8279 156.667 50.3546 157.433 49.7413 158.1C49.1413 158.753 48.4213 159.267 47.5813 159.64C46.7546 160.013 45.8479 160.2 44.8613 160.2C43.8746 160.2 42.9679 160.013 42.1413 159.64C41.3146 159.267 40.5946 158.753 39.9813 158.1C39.3813 157.433 38.9146 156.667 38.5813 155.8C38.2479 154.933 38.0813 154 38.0813 153C38.0813 152 38.2479 151.067 38.5813 150.2C38.9146 149.333 39.3813 148.573 39.9813 147.92C40.5946 147.253 41.3146 146.733 42.1413 146.36C42.9679 145.987 43.8746 145.8 44.8613 145.8C45.8479 145.8 46.7546 145.987 47.5813 146.36C48.4213 146.733 49.1413 147.253 49.7413 147.92C50.3546 148.573 50.8279 149.333 51.1613 150.2C51.4946 151.067 51.6613 152 51.6613 153ZM49.0613 153C49.0613 152.107 48.8813 151.3 48.5213 150.58C48.1613 149.847 47.6679 149.267 47.0413 148.84C46.4146 148.413 45.6879 148.2 44.8613 148.2C44.0346 148.2 43.3079 148.413 42.6813 148.84C42.0546 149.267 41.5613 149.84 41.2013 150.56C40.8546 151.28 40.6813 152.093 40.6813 153C40.6813 153.893 40.8546 154.707 41.2013 155.44C41.5613 156.16 42.0546 156.733 42.6813 157.16C43.3079 157.587 44.0346 157.8 44.8613 157.8C45.6879 157.8 46.4146 157.587 47.0413 157.16C47.6679 156.733 48.1613 156.16 48.5213 155.44C48.8813 154.707 49.0613 153.893 49.0613 153ZM63.597 160C63.2237 160 62.9237 159.847 62.697 159.54L58.077 153.46L59.897 151.6L64.677 157.92C64.8637 158.173 64.957 158.447 64.957 158.74C64.957 159.113 64.817 159.42 64.537 159.66C64.257 159.887 63.9437 160 63.597 160ZM63.837 145.9C64.157 145.9 64.417 146.033 64.617 146.3C64.8304 146.553 64.937 146.813 64.937 147.08C64.937 147.36 64.817 147.62 64.577 147.86L56.197 155.88L56.097 153.02L62.857 146.36C63.1637 146.053 63.4904 145.9 63.837 145.9ZM55.197 160C54.8237 160 54.5237 159.887 54.297 159.66C54.0704 159.42 53.957 159.127 53.957 158.78V147.22C53.957 146.873 54.077 146.587 54.317 146.36C54.557 146.12 54.8637 146 55.237 146C55.6104 146 55.9037 146.12 56.117 146.36C56.3437 146.587 56.457 146.873 56.457 147.22V158.78C56.457 159.127 56.3437 159.42 56.117 159.66C55.8904 159.887 55.5837 160 55.197 160ZM71.3672 160.2C70.4339 160.2 69.5939 160.087 68.8472 159.86C68.1005 159.62 67.3872 159.207 66.7072 158.62C66.5339 158.473 66.4005 158.307 66.3072 158.12C66.2139 157.933 66.1672 157.747 66.1672 157.56C66.1672 157.253 66.2739 156.987 66.4872 156.76C66.7139 156.52 66.9939 156.4 67.3272 156.4C67.5805 156.4 67.8072 156.48 68.0072 156.64C68.5139 157.053 69.0139 157.367 69.5072 157.58C70.0139 157.793 70.6339 157.9 71.3672 157.9C71.8605 157.9 72.3139 157.827 72.7272 157.68C73.1405 157.52 73.4739 157.313 73.7272 157.06C73.9805 156.793 74.1072 156.493 74.1072 156.16C74.1072 155.76 73.9872 155.42 73.7472 155.14C73.5072 154.86 73.1405 154.627 72.6472 154.44C72.1539 154.24 71.5272 154.087 70.7672 153.98C70.0472 153.873 69.4139 153.713 68.8672 153.5C68.3205 153.273 67.8605 152.993 67.4872 152.66C67.1272 152.313 66.8539 151.913 66.6672 151.46C66.4805 150.993 66.3872 150.473 66.3872 149.9C66.3872 149.033 66.6072 148.293 67.0472 147.68C67.5005 147.067 68.1072 146.6 68.8672 146.28C69.6272 145.96 70.4672 145.8 71.3872 145.8C72.2539 145.8 73.0539 145.933 73.7872 146.2C74.5339 146.453 75.1405 146.78 75.6072 147.18C75.9939 147.487 76.1872 147.84 76.1872 148.24C76.1872 148.533 76.0739 148.8 75.8472 149.04C75.6205 149.28 75.3539 149.4 75.0472 149.4C74.8472 149.4 74.6672 149.34 74.5072 149.22C74.2939 149.033 74.0072 148.86 73.6472 148.7C73.2872 148.527 72.9072 148.387 72.5072 148.28C72.1072 148.16 71.7339 148.1 71.3872 148.1C70.8139 148.1 70.3272 148.173 69.9272 148.32C69.5405 148.467 69.2472 148.667 69.0472 148.92C68.8472 149.173 68.7472 149.467 68.7472 149.8C68.7472 150.2 68.8605 150.533 69.0872 150.8C69.3272 151.053 69.6672 151.26 70.1072 151.42C70.5472 151.567 71.0739 151.7 71.6872 151.82C72.4872 151.967 73.1872 152.14 73.7872 152.34C74.4005 152.54 74.9072 152.8 75.3072 153.12C75.7072 153.427 76.0072 153.82 76.2072 154.3C76.4072 154.767 76.5072 155.34 76.5072 156.02C76.5072 156.887 76.2672 157.633 75.7872 158.26C75.3072 158.887 74.6739 159.367 73.8872 159.7C73.1139 160.033 72.2739 160.2 71.3672 160.2ZM80.0808 146C80.4008 146 80.6808 146.12 80.9208 146.36C81.1741 146.587 81.3008 146.873 81.3008 147.22V158.78C81.3008 159.127 81.1741 159.42 80.9208 159.66C80.6674 159.887 80.3741 160 80.0408 160C79.6674 160 79.3674 159.887 79.1408 159.66C78.9141 159.42 78.8008 159.127 78.8008 158.78V147.22C78.8008 146.873 78.9208 146.587 79.1608 146.36C79.4008 146.12 79.7074 146 80.0808 146ZM88.9408 146C89.3141 146 89.6141 146.12 89.8408 146.36C90.0674 146.587 90.1808 146.873 90.1808 147.22V158.78C90.1808 159.127 90.0608 159.42 89.8208 159.66C89.5941 159.887 89.2874 160 88.9008 160C88.5808 160 88.2941 159.887 88.0408 159.66C87.8008 159.42 87.6808 159.127 87.6808 158.78V147.22C87.6808 146.873 87.8074 146.587 88.0608 146.36C88.3141 146.12 88.6074 146 88.9408 146ZM80.0208 151.82H88.9408V154.12H80.0208V151.82ZM94.3958 146H101.096C101.442 146 101.729 146.113 101.956 146.34C102.196 146.553 102.316 146.833 102.316 147.18C102.316 147.513 102.196 147.787 101.956 148C101.729 148.2 101.442 148.3 101.096 148.3H95.4958L95.6758 147.96V151.86L95.5158 151.7H100.196C100.542 151.7 100.829 151.813 101.056 152.04C101.296 152.253 101.416 152.533 101.416 152.88C101.416 153.213 101.296 153.487 101.056 153.7C100.829 153.9 100.542 154 100.196 154H95.5758L95.6758 153.84V157.88L95.5158 157.7H101.096C101.442 157.7 101.729 157.82 101.956 158.06C102.196 158.287 102.316 158.553 102.316 158.86C102.316 159.193 102.196 159.467 101.956 159.68C101.729 159.893 101.442 160 101.096 160H94.3958C94.0491 160 93.7558 159.887 93.5158 159.66C93.2891 159.42 93.1758 159.127 93.1758 158.78V147.22C93.1758 146.873 93.2891 146.587 93.5158 146.36C93.7558 146.12 94.0491 146 94.3958 146ZM112.341 157.66C112.688 157.66 112.974 157.773 113.201 158C113.441 158.213 113.561 158.493 113.561 158.84C113.561 159.173 113.441 159.453 113.201 159.68C112.974 159.893 112.688 160 112.341 160H105.841C105.494 160 105.201 159.887 104.961 159.66C104.734 159.42 104.621 159.127 104.621 158.78V147.22C104.621 146.873 104.741 146.587 104.981 146.36C105.221 146.12 105.528 146 105.901 146C106.221 146 106.501 146.12 106.741 146.36C106.994 146.587 107.121 146.873 107.121 147.22V158L106.681 157.66H112.341ZM117.112 160C116.738 160 116.432 159.887 116.192 159.66C115.965 159.42 115.852 159.127 115.852 158.78V147.22C115.852 146.873 115.965 146.587 116.192 146.36C116.432 146.12 116.725 146 117.072 146H123.572C123.918 146 124.205 146.113 124.432 146.34C124.672 146.553 124.792 146.833 124.792 147.18C124.792 147.473 124.672 147.733 124.432 147.96C124.205 148.187 123.918 148.3 123.572 148.3H118.172L118.352 148.06V152.08L118.212 151.82H122.672C123.018 151.82 123.305 151.933 123.532 152.16C123.772 152.373 123.892 152.653 123.892 153C123.892 153.293 123.772 153.553 123.532 153.78C123.305 154.007 123.018 154.12 122.672 154.12H118.172L118.352 153.94V158.78C118.352 159.127 118.225 159.42 117.972 159.66C117.732 159.887 117.445 160 117.112 160Z" fill="#829C4E"/>
</svg>
