<svg width="42" height="42" viewBox="0 0 42 42" fill="none" xmlns="http://www.w3.org/2000/svg">
<path d="M22.75 17.5L33.1608 34.153C33.2127 34.2368 33.2414 34.333 33.2438 34.4316C33.2462 34.5302 33.2223 34.6277 33.1746 34.714C33.1268 34.8003 33.0569 34.8723 32.972 34.9225C32.8871 34.9728 32.7904 34.9995 32.6918 35H9.30827C9.20912 34.9995 9.11192 34.9725 9.02678 34.9217C8.94164 34.8709 8.87166 34.7982 8.82413 34.7112C8.77661 34.6242 8.75327 34.526 8.75655 34.4269C8.75982 34.3278 8.7896 34.2314 8.84277 34.1478L19.25 17.5V5.25H22.75V17.5ZM12.25 1.75V5.25H15.75V16.555L5.87827 32.2875C5.49336 32.9009 5.2797 33.6062 5.25946 34.3301C5.23922 35.0541 5.41315 35.7702 5.76318 36.4042C6.11321 37.0381 6.62658 37.5669 7.24998 37.9354C7.87338 38.304 8.58407 38.4989 9.30827 38.5H32.6918C33.416 38.4989 34.1267 38.304 34.7501 37.9354C35.3735 37.5669 35.8868 37.0381 36.2369 36.4042C36.5869 35.7702 36.7608 35.0541 36.7406 34.3301C36.7203 33.6062 36.5067 32.9009 36.1218 32.2875L26.2518 16.555L26.25 5.25H29.75V1.75H12.25Z" fill="white"/>
</svg>
