<svg width="42" height="42" viewBox="0 0 42 42" fill="none" xmlns="http://www.w3.org/2000/svg">
<path d="M31.4036 24.9848C30.7755 22.7077 29.4176 20.6996 27.5383 19.2685C25.659 17.8374 23.3621 17.0625 21 17.0625C18.6379 17.0625 16.341 17.8374 14.4617 19.2685C12.5824 20.6996 11.2245 22.7077 10.5964 24.9848L9.09948 30.4111C8.83072 31.3854 8.79062 32.4086 8.98231 33.401C9.17401 34.3933 9.59232 35.3279 10.2046 36.132C10.8169 36.9361 11.6067 37.5879 12.5123 38.0366C13.4179 38.4853 14.415 38.7187 15.4256 38.7188H26.5744C27.585 38.7187 28.5821 38.4853 29.4877 38.0366C30.3933 37.5879 31.1831 36.9361 31.7954 36.132C32.4077 35.3279 32.826 34.3933 33.0177 33.401C33.2094 32.4086 33.1693 31.3854 32.9005 30.4111L31.4036 24.9848ZM29.707 34.5414C29.3413 35.0256 28.8677 35.418 28.324 35.6875C27.7802 35.9569 27.1812 36.096 26.5744 36.0938H15.4256C14.8192 36.0938 14.221 35.9537 13.6776 35.6845C13.1342 35.4153 12.6604 35.0242 12.293 34.5417C11.9256 34.0593 11.6746 33.4985 11.5596 32.9031C11.4446 32.3076 11.4686 31.6937 11.6299 31.1091L13.1268 25.6828C13.6022 23.9596 14.6298 22.4399 16.052 21.3569C17.4742 20.274 19.2124 19.6875 21 19.6875C22.7876 19.6875 24.5258 20.274 25.948 21.3569C27.3702 22.4399 28.3978 23.9596 28.8732 25.6828L30.3701 31.1091C30.5337 31.6935 30.5589 32.3079 30.4439 32.9037C30.3288 33.4995 30.0765 34.0603 29.707 34.5417V34.5414ZM11.9848 18.8926C12.2131 17.4653 11.9103 15.9373 11.1316 14.589C10.353 13.2407 9.18094 12.2145 7.83095 11.6986C6.38523 11.1464 4.91064 11.2343 3.67738 11.946C1.22571 13.3616 0.580536 16.8503 2.23945 19.723C3.01785 21.0713 4.18999 22.0978 5.53998 22.6135C6.138 22.8465 6.77365 22.9681 7.41546 22.972C8.21506 22.9749 9.00112 22.7658 9.69355 22.3659C10.9261 21.6541 11.7398 20.4206 11.9848 18.8926ZM9.39258 18.4777C9.27527 19.2102 8.91598 19.7836 8.38089 20.0926C7.8458 20.4015 7.16953 20.4258 6.47637 20.1612C5.6878 19.8601 4.99037 19.2383 4.51246 18.4105C3.59371 16.8191 3.81207 14.8996 4.98988 14.2194C5.28596 14.0514 5.62129 13.9648 5.9617 13.9685C6.28103 13.9718 6.59707 14.0335 6.89424 14.1504C7.6828 14.4517 8.38023 15.0734 8.85815 15.9012C9.33606 16.729 9.5258 17.6442 9.39258 18.4777ZM12.2691 13.4545C13.2011 14.1996 14.2655 14.5876 15.3418 14.5875C15.6642 14.5874 15.9857 14.5528 16.3007 14.4841C19.067 13.8827 20.7443 10.7564 20.0397 7.51489C19.7091 5.99353 18.9053 4.6588 17.7766 3.75638C16.5679 2.79005 15.1361 2.42427 13.745 2.7268C10.9787 3.32809 9.30144 6.45447 10.006 9.69593C10.3367 11.2174 11.1404 12.5521 12.2691 13.4545ZM14.3025 5.29192C14.43 5.26442 14.5602 5.25067 14.6906 5.2509C15.1786 5.2509 15.6804 5.44179 16.1374 5.80716C16.7967 6.33421 17.2716 7.13885 17.4745 8.07294C17.865 9.86902 17.0721 11.6305 15.7431 11.9194C15.1393 12.0506 14.4876 11.8679 13.9083 11.4046C13.249 10.8775 12.7742 10.0729 12.5712 9.13886C12.1807 7.34229 12.9736 5.58083 14.3025 5.29192ZM38.3226 11.946C37.0899 11.2343 35.6145 11.1464 34.1691 11.6986C32.8191 12.2143 31.6469 13.2407 30.8685 14.589C30.0901 15.9373 29.7872 17.4656 30.0154 18.8926C30.26 20.4206 31.0736 21.6541 32.3066 22.3659C32.999 22.7658 33.7851 22.975 34.5847 22.972C35.2265 22.9681 35.8622 22.8465 36.4602 22.6135C37.8102 22.0978 38.9823 21.0713 39.7607 19.723C41.4195 16.8503 40.7743 13.3616 38.3226 11.946ZM37.4875 18.4105C37.0096 19.2383 36.3122 19.8601 35.5236 20.1612C34.8308 20.426 34.1544 20.4017 33.6193 20.0926C33.0842 19.7835 32.7251 19.2102 32.6076 18.4777C32.4742 17.6442 32.6639 16.7293 33.1419 15.9019C33.6199 15.0746 34.3172 14.4524 35.1058 14.1511C35.4029 14.0341 35.719 13.9724 36.0383 13.9689C36.3787 13.9652 36.714 14.0518 37.0101 14.2198C38.1879 14.8994 38.4065 16.8187 37.4875 18.4105ZM25.6993 14.4841C26.0143 14.5528 26.3358 14.5874 26.6582 14.5875C27.7344 14.5875 28.7992 14.1996 29.7309 13.4545C30.8596 12.5522 31.6633 11.2174 31.994 9.69601C32.6986 6.45455 31.0213 3.32817 28.255 2.72689C26.864 2.42452 25.4321 2.79005 24.2234 3.75646C23.0947 4.6588 22.2909 5.99362 21.9603 7.51489C21.2557 10.7564 22.933 13.8827 25.6993 14.4841ZM24.5255 8.07253C24.7284 7.13844 25.2033 6.33347 25.8626 5.80675C26.3196 5.44138 26.8214 5.25049 27.3094 5.25049C27.4398 5.25026 27.57 5.26401 27.6975 5.29151C29.0264 5.58042 29.8193 7.34229 29.429 9.13796C29.2258 10.072 28.751 10.877 28.0918 11.4038C27.5126 11.867 26.8614 12.0497 26.2571 11.9186C24.9279 11.6301 24.135 9.86836 24.5255 8.07253Z" fill="white"/>
</svg>
