<svg width="42" height="42" viewBox="0 0 42 42" fill="none" xmlns="http://www.w3.org/2000/svg">
<path d="M34.8953 16.4091C33.9258 14.1322 32.4122 12.1282 30.4874 10.5728C28.5626 9.01746 26.2854 7.95838 23.8557 7.48855L26.0505 3.97687L23.8245 2.58562L20.9284 7.21941C17.9784 7.23309 15.097 8.11075 12.6402 9.74394C10.1835 11.3771 8.25909 13.6943 7.10473 16.4091C5.55849 16.4385 4.0855 17.0734 3.00239 18.1773C1.91927 19.2812 1.3125 20.766 1.3125 22.3125C1.3125 23.859 1.91927 25.3438 3.00239 26.4477C4.0855 27.5516 5.55849 28.1865 7.10473 28.2159C8.264 30.9419 10.1995 33.2667 12.6702 34.9008C15.1409 36.535 18.0378 37.4063 21 37.4063C23.9623 37.4063 26.8591 36.535 29.3298 34.9008C31.8005 33.2667 33.736 30.9419 34.8953 28.2159C36.4415 28.1865 37.9145 27.5516 38.9976 26.4477C40.0807 25.3438 40.6875 23.859 40.6875 22.3125C40.6875 20.766 40.0807 19.2812 38.9976 18.1773C37.9145 17.0734 36.4415 16.4385 34.8953 16.4091ZM37.1226 24.6102C36.5222 25.2242 35.704 25.5768 34.8454 25.5914L33.1453 25.6237L32.4798 27.1884C31.5222 29.4407 29.9233 31.3615 27.882 32.7117C25.8408 34.062 23.4474 34.7819 21 34.7819C18.5526 34.7819 16.1593 34.062 14.1181 32.7117C12.0768 31.3615 10.4779 29.4407 9.52031 27.1884L8.8547 25.6237L7.15461 25.5914C6.29562 25.5753 5.47725 25.2228 4.87546 24.6096C4.27367 23.9965 3.93653 23.1716 3.93653 22.3125C3.93653 21.4534 4.27367 20.6285 4.87546 20.0154C5.47725 19.4022 6.29562 19.0497 7.15461 19.0336L8.8547 19.0013L9.52031 17.4366C10.4779 15.1844 12.0769 13.2635 14.1181 11.9133C16.1593 10.5631 18.5527 9.84322 21 9.84322C23.4474 9.84322 25.8408 10.5631 27.882 11.9133C29.9232 13.2635 31.5222 15.1844 32.4798 17.4366L33.1453 19.0013L34.8454 19.0336C35.4861 19.0457 36.1092 19.2453 36.6377 19.6077C37.1662 19.97 37.577 20.4793 37.8192 21.0725C38.0615 21.6657 38.1246 22.317 38.0008 22.9457C37.877 23.5744 37.5717 24.1531 37.1226 24.6102Z" fill="white"/>
<path d="M13.7812 19.0312H17.0625V22.3125H13.7812V19.0312ZM24.9375 19.0312H28.2188V22.3125H24.9375V19.0312ZM21 31.5C21.8618 31.5 22.7152 31.3303 23.5114 31.0005C24.3076 30.6707 25.031 30.1873 25.6404 29.5779C26.2498 28.9685 26.7332 28.2451 27.063 27.4489C27.3928 26.6527 27.5625 25.7993 27.5625 24.9375H14.4375C14.4375 25.7993 14.6072 26.6527 14.937 27.4489C15.2668 28.2451 15.7502 28.9685 16.3596 29.5779C17.5903 30.8086 19.2595 31.5 21 31.5Z" fill="white"/>
</svg>
